<?xml version="1.0" standalone="no"?>
<svg
  width="600"
  height="600"
  viewBox="0 0 600 600"
  xmlns="http://www.w3.org/2000/svg"
>
  <g transform="translate(300,300)">
    <path d="M156,-179.7C202.3,-147.1,240,-98,246.8,-45.6C253.6,6.9,229.4,62.7,196.9,108.7C164.4,154.8,123.6,191.1,77.2,204.9C30.8,218.6,-21.2,209.9,-73.2,194C-125.3,178.2,-177.4,155.4,-203.8,115C-230.1,74.7,-230.8,17,-224.2,-42.9C-217.7,-102.8,-204,-164.8,-165.4,-198.8C-126.8,-232.8,-63.4,-238.9,-4.3,-233.8C54.9,-228.7,109.7,-212.4,156,-179.7Z" fill="#4fe8e3" />
  </g>
</svg>
  